<svg width="48" height="48" viewBox="0 0 48 48" fill="none" xmlns="http://www.w3.org/2000/svg">
<g clip-path="url(#clip0_9298_97496)">
<path fill-rule="evenodd" clip-rule="evenodd" d="M24 5.5C13.7828 5.5 5.5 13.7828 5.5 24C5.5 34.2174 13.7828 42.5 24 42.5C34.2174 42.5 42.5 34.2174 42.5 24C42.5 13.7828 34.2174 5.5 24 5.5ZM4.5 24C4.5 13.2305 13.2305 4.5 24 4.5C34.7697 4.5 43.5 13.2305 43.5 24C43.5 34.7697 34.7697 43.5 24 43.5C13.2305 43.5 4.5 34.7697 4.5 24Z" fill="#DAB16E"/>
<path d="M36.2003 24.0006C36.2003 17.2628 30.7383 11.8008 24.0006 11.8008C17.2628 11.8008 11.8008 17.2628 11.8008 24.0006C11.8008 30.7383 17.2628 36.2003 24.0006 36.2003C30.7383 36.2003 36.2003 30.7383 36.2003 24.0006Z" fill="#FFF7DE"/>
<path d="M39.2993 32.0219C36.4103 37.5199 30.6441 41.2696 24.002 41.2696C16.806 41.2696 10.638 36.8684 8.04297 30.6109C8.60628 30.3661 9.17522 30.1152 9.74896 29.8622C14.6981 27.6798 20.0046 25.3398 25.1376 25.3398C26.0139 25.3398 26.8857 25.4082 27.7493 25.557C29.2411 25.8135 30.7088 26.3096 32.1386 27.111C34.6548 28.5193 37.0077 30.219 39.2993 32.0219Z" fill="white"/>
<path d="M22.3898 41.1953C15.8945 40.594 10.4419 36.3957 8.04297 30.611C8.606 30.3662 9.17466 30.1155 9.74812 29.8626C14.6975 27.6803 20.0046 25.3402 25.1375 25.3398C26.0142 25.3398 26.8851 25.408 27.7492 25.557C23.4531 26.6053 19.5578 30.1113 19.7545 34.9295C19.818 36.4757 20.3122 37.9563 21.0965 39.3265C21.4677 39.9754 21.9038 40.5998 22.3898 41.1953Z" fill="#DAB16E"/>
<path d="M23.3359 41.257C23.0167 41.2449 22.6996 41.2241 22.385 41.195C20.8742 39.3422 19.8463 37.2107 19.7532 34.933C19.5601 30.1957 23.3231 26.7286 27.5328 25.6172C27.4448 25.6552 27.3589 25.6943 27.2778 25.7326C26.5403 26.081 25.7364 26.5079 25.0869 26.9947C24.9153 27.1235 24.7399 27.2476 24.5645 27.3718C24.2953 27.5625 24.0259 27.7531 23.77 27.9605C23.5033 28.1768 23.3231 28.4267 23.135 28.6875C23.0624 28.7881 22.9887 28.8903 22.9084 28.9929C22.4617 29.5631 22.113 30.0671 21.7934 30.7176C20.5935 33.1606 20.5492 36.0327 21.6868 38.5058C22.0993 39.4028 22.6772 40.4277 23.3359 41.257Z" fill="black"/>
<path d="M23.1621 28.1587C23.2095 27.9444 23.4937 28.0005 23.6056 27.8579C23.7581 27.6639 23.6538 27.2176 23.6126 26.9972C23.5492 26.6592 23.4715 26.2812 23.2941 25.9864C23.1368 25.7252 23.1281 25.4926 23.0394 25.2139C22.942 24.9099 22.732 24.6494 22.601 24.3618C22.522 24.1878 22.3138 23.8902 22.3186 23.7083C22.3637 23.6929 22.2975 23.7251 22.2864 23.7637C22.2593 23.8548 22.1876 23.938 22.1502 24.0263C22.085 24.1799 22.0386 24.3407 21.9787 24.4965C21.8875 24.7323 21.7901 24.9635 21.6709 25.1857C21.5725 25.3697 21.5126 25.5205 21.471 25.7252C21.4401 25.8781 21.3507 25.9646 21.2811 26.1036C21.0531 26.5577 20.9616 27.089 20.8008 27.5653C20.7516 27.7103 20.701 27.7689 20.6046 27.8901C20.5128 28.0058 20.5721 28.1627 20.4996 28.2606C20.4075 28.3853 20.099 28.3117 19.9681 28.3117C19.8922 28.3117 19.8149 28.3388 19.7376 28.2999C19.67 28.2656 19.6957 28.1873 19.5976 28.1827C19.7352 27.9519 20.0904 27.9669 20.2131 27.6682C20.3489 27.338 20.5173 27.0218 20.6369 26.662C20.7076 26.4495 20.8278 26.2126 20.8289 25.9853C20.8299 25.786 20.825 25.6545 20.9054 25.4562C20.9921 25.2425 21.1092 25.0724 21.1688 24.8427C21.2575 24.4993 21.366 24.1685 21.455 23.823C21.5295 23.5336 21.6065 23.3492 21.4034 23.133C21.2423 22.9608 21.0264 22.7179 21.061 22.4592C20.1344 22.725 19.2961 22.4052 18.5469 21.8486C18.269 21.6424 17.989 21.4134 17.7035 21.2262C17.5094 21.0986 17.4162 20.965 17.2661 20.7785C17.0686 20.533 16.833 20.3001 16.798 19.9824C16.6302 19.971 16.4064 19.6748 16.17 19.6505C15.9808 19.6305 15.7906 19.5805 15.6797 19.3843C15.8221 19.121 15.8471 18.8588 16.2088 18.847C16.3599 18.842 16.4805 18.7927 16.625 18.7891C16.8271 18.7841 16.9248 18.843 17.132 18.7673C17.4425 18.6544 17.7759 18.6708 18.0285 18.9238C18.0839 18.813 18.2472 18.6451 18.3109 18.7805C18.3833 18.9327 18.1723 19.1414 18.2226 19.2693C18.2479 19.3339 18.3026 19.3225 18.3501 19.3597C18.4364 19.4272 18.4589 19.4958 18.514 19.5808C18.5563 19.6462 18.6169 19.6952 18.6703 19.7552C18.7375 19.8309 18.7607 19.9299 18.8231 20.0071C18.9198 20.1275 19.1599 20.0968 19.1599 20.2901C19.2383 20.2836 19.2857 20.1907 19.3672 20.24C19.4465 20.2876 19.407 20.4216 19.4625 20.4823C19.4805 20.5016 19.6434 20.6009 19.6482 20.6023C19.7376 20.6299 19.8381 20.5516 19.9539 20.573C19.9715 20.6249 19.9729 20.6863 19.966 20.7431C20.1604 20.6856 20.3527 20.6938 20.4948 20.8503C20.7405 20.8192 20.869 20.6892 21.077 20.548C21.1695 20.4851 21.2689 20.4291 21.3424 20.3412C21.41 20.2608 21.4925 20.1972 21.5569 20.1161C21.5898 20.0746 21.5888 19.9992 21.6363 19.9571C21.6893 19.9103 21.7385 19.9271 21.7856 19.8942C21.8328 19.8617 21.831 19.8066 21.8868 19.7777C21.9423 19.7484 22.014 19.7734 22.0688 19.7509C22.1724 19.7077 22.2365 19.6452 22.3626 19.618C22.4278 19.6044 22.5442 19.5801 22.6215 19.5565C22.679 19.5397 22.7071 19.5137 22.7694 19.4826C22.8065 19.4644 22.8176 19.434 22.8613 19.4226C22.8925 19.4147 22.9185 19.4544 22.9524 19.4436C23.0647 19.4086 23.2054 19.3472 23.3128 19.2725C23.5235 19.3039 23.5928 19.0556 23.7955 19.0574C23.8389 18.9084 23.8749 18.8741 24.0222 18.8584C24.0759 18.853 24.141 18.8655 24.1916 18.8434C24.244 18.8205 24.2679 18.7441 24.3192 18.7194C24.4422 18.6601 24.5392 18.7641 24.6685 18.738C24.7641 18.7187 24.9755 18.5861 24.9907 18.7894C25.0794 18.7698 25.208 18.7487 25.2985 18.7851C25.3643 18.8116 25.4076 18.8916 25.4748 18.917C25.5743 18.9541 25.655 18.922 25.7472 19.0052C25.8456 19.0942 25.8602 19.1589 25.9815 19.221C26.1357 19.3 26.1347 19.3325 26.2102 19.4837C26.284 19.6305 26.3107 19.583 26.4365 19.6366C26.6084 19.7095 26.6021 19.8674 26.7896 19.9238C26.9133 19.961 27.3309 20.0024 27.378 20.1279C27.4404 20.1529 27.5114 20.2197 27.5939 20.25C27.6833 20.2829 27.7925 20.3172 27.8389 20.4198C28.1754 20.572 28.5088 21.1008 28.6425 21.4327C28.8279 21.8925 28.8577 22.3738 28.8785 22.864C28.891 23.1606 28.9277 23.4589 28.9541 23.7512C28.9679 23.9016 28.978 24.0216 29.0345 24.1621C29.1855 24.5369 29.4565 24.8706 29.7296 25.1571C29.9687 25.4076 29.8294 25.8528 29.845 26.1929C29.8582 26.4859 29.8748 26.7778 29.8956 27.0686C29.9098 27.2648 29.8935 27.4141 29.977 27.5903C30.0235 27.6896 30.2148 27.6682 30.2518 27.7854C30.2903 27.9069 30.1427 28.212 30.0647 28.3138C29.9344 28.4832 29.8894 28.3663 29.8866 28.2016C29.8828 28.0194 29.8551 27.9565 29.7473 27.8193C29.5335 27.5481 29.661 27.1294 29.5865 26.7903C29.4908 26.3576 29.389 25.9442 29.1706 25.5426C28.9655 25.165 28.595 24.8059 28.253 24.564C28.341 24.9052 28.3934 25.3418 28.4734 25.7088C28.5029 25.841 28.5399 25.9217 28.4779 26.0321C28.3996 26.1704 28.3043 26.2597 28.2371 26.4162C28.0413 26.8711 27.7509 27.2366 27.4951 27.6532C27.3933 27.8193 27.2585 28.2098 27.0935 28.2849C26.9535 28.3485 26.5321 28.3924 26.4032 28.3081C26.153 28.3049 26.6118 28.0526 26.6621 28.0383C26.774 28.0058 27.0464 27.9483 27.0547 27.8204C27.0627 27.6989 27.1763 27.5831 27.2398 27.482C27.3357 27.3284 27.4182 27.169 27.4993 27.0061C27.6774 26.6488 27.7727 26.3183 27.7623 25.9139C27.7505 25.458 27.7142 24.8959 27.5055 24.4815C27.342 24.1567 27.2775 23.8794 27.2768 23.5079C27.2765 23.1945 27.2529 22.8508 26.9649 22.6657C26.992 22.765 26.7764 22.9791 26.7005 23.0637C26.4774 23.3135 26.1624 23.4778 25.8758 23.6454C25.2486 24.0131 24.4266 24.0374 23.7796 23.7304C23.5949 23.6426 23.2969 23.5318 23.1077 23.5432C23.1163 23.8551 23.2608 24.4111 23.4067 24.723C23.536 24.9985 23.7127 25.2586 23.7453 25.5662C23.7855 25.9435 23.8337 26.313 23.8877 26.6953C23.9134 26.8768 23.9432 27.049 23.9809 27.2276C24.001 27.3227 24.0707 27.4867 24.061 27.5771C24.0516 27.6592 23.9671 27.735 23.9445 27.8204C23.9141 27.9344 23.9733 28.0369 23.9747 28.1527C23.9764 28.3356 23.2965 28.2559 23.1621 28.1587Z" fill="black"/>
</g>
<defs>
<clipPath id="clip0_9298_97496">
<rect width="40" height="40" fill="white" transform="translate(4 4)"/>
</clipPath>
</defs>
</svg>
