<svg width="48" height="48" viewBox="0 0 48 48" fill="none" xmlns="http://www.w3.org/2000/svg">
<g clip-path="url(#clip0_9298_97458)">
<path fill-rule="evenodd" clip-rule="evenodd" d="M24 5.5C13.7828 5.5 5.5 13.7828 5.5 24C5.5 34.2174 13.7828 42.5 24 42.5C34.2174 42.5 42.5 34.2174 42.5 24C42.5 13.7828 34.2174 5.5 24 5.5ZM4.5 24C4.5 13.2305 13.2305 4.5 24 4.5C34.7697 4.5 43.5 13.2305 43.5 24C43.5 34.7697 34.7697 43.5 24 43.5C13.2305 43.5 4.5 34.7697 4.5 24Z" fill="#DAB16E"/>
<path d="M38.3739 24.0014C38.3739 16.0626 31.9382 9.62695 23.9994 9.62695C16.0606 9.62695 9.625 16.0626 9.625 24.0014C9.625 31.9402 16.0606 38.3758 23.9994 38.3758C31.9382 38.3758 38.3739 31.9402 38.3739 24.0014Z" fill="#FFF7DE"/>
<path d="M40.3286 29.6411C37.9905 36.4083 31.5638 41.2686 24.0017 41.2686C17.816 41.2686 12.3898 38.0164 9.33984 33.1285C16.1522 30.1477 23.3514 27.2402 30.335 27.2402C31.6404 27.2402 32.9393 27.3421 34.2257 27.5638C36.2968 27.9199 38.3366 28.5858 40.3286 29.6411Z" fill="white"/>
<path d="M22.3063 41.1864C16.8327 40.6531 12.1078 37.5645 9.33984 33.1287C16.1523 30.1481 23.3519 27.2407 30.335 27.2402C31.641 27.2402 32.9384 27.3417 34.2257 27.5638C27.9271 29.1007 22.2068 34.1837 22.3063 41.1864Z" fill="#DAB16E"/>
<path d="M23.9642 41.2711C23.4035 41.2699 22.849 41.2421 22.302 41.1887C22.2077 34.3085 27.7324 29.2848 33.901 27.6562C33.7699 27.7129 33.6419 27.7712 33.5211 27.8281C32.4224 28.3473 31.2248 28.9832 30.2572 29.7084C30.0016 29.9002 29.7403 30.0852 29.4789 30.2702C29.0778 30.5542 28.6766 30.8383 28.2954 31.1471C27.8981 31.4693 27.6295 31.8417 27.3493 32.2302C27.2412 32.3801 27.1314 32.5324 27.0118 32.6851C26.3463 33.5347 25.8269 34.2855 25.3507 35.2546C24.4221 37.1452 23.9581 39.2084 23.9642 41.2711Z" fill="black"/>
<path d="M25.6403 31.1678C25.7139 30.8353 26.1546 30.9224 26.3282 30.7012C26.5647 30.4003 26.4029 29.7082 26.339 29.3663C26.2406 28.842 26.1202 28.2557 25.845 27.7986C25.601 27.3935 25.5876 27.0327 25.45 26.6005C25.299 26.1289 24.9733 25.7249 24.7701 25.2788C24.6475 25.0089 24.3245 24.5473 24.332 24.2652C24.4019 24.2414 24.2993 24.2913 24.2821 24.3511C24.2401 24.4924 24.1289 24.6216 24.0708 24.7584C23.9698 24.9967 23.8978 25.2461 23.8048 25.4877C23.6634 25.8535 23.5124 26.212 23.3275 26.5567C23.1749 26.8421 23.0819 27.0759 23.0174 27.3935C22.9696 27.6306 22.8309 27.7648 22.7229 27.9803C22.3692 28.6847 22.2273 29.5087 21.9779 30.2474C21.9016 30.4724 21.8231 30.5633 21.6737 30.7511C21.5313 30.9307 21.6232 31.1739 21.5109 31.3258C21.3679 31.5192 20.8895 31.405 20.6864 31.405C20.5687 31.405 20.4488 31.4471 20.329 31.3867C20.2241 31.3335 20.2639 31.2122 20.1118 31.205C20.3252 30.847 20.8761 30.8703 21.0664 30.407C21.2771 29.8949 21.5383 29.4045 21.7237 28.8465C21.8333 28.5167 22.0198 28.1493 22.0215 27.7969C22.0231 27.4877 22.0155 27.2837 22.1402 26.9762C22.2746 26.6448 22.4563 26.381 22.5487 26.0247C22.6863 25.4921 22.8545 24.979 22.9927 24.4431C23.1082 23.9943 23.2275 23.7083 22.9126 23.373C22.6627 23.1059 22.3278 22.7291 22.3816 22.3279C20.9444 22.7402 19.6442 22.2442 18.4822 21.3808C18.0511 21.0611 17.6169 20.7059 17.174 20.4155C16.873 20.2177 16.7284 20.0104 16.4957 19.7211C16.1893 19.3404 15.8239 18.9791 15.7696 18.4865C15.5094 18.4687 15.1622 18.0093 14.7957 17.9717C14.5022 17.9406 14.2071 17.863 14.0352 17.5588C14.2561 17.1504 14.2948 16.7436 14.8559 16.7254C15.0902 16.7176 15.2773 16.6411 15.5014 16.6356C15.8147 16.6278 15.9663 16.7193 16.2877 16.6018C16.7693 16.4267 17.2863 16.4522 17.6781 16.8445C17.7641 16.6727 18.0173 16.4123 18.1162 16.6223C18.2285 16.8584 17.9012 17.182 17.9791 17.3804C18.0184 17.4807 18.1033 17.4629 18.1769 17.5206C18.3107 17.6253 18.3457 17.7317 18.4311 17.8636C18.4967 17.965 18.5908 18.0409 18.6735 18.134C18.7778 18.2515 18.8138 18.405 18.9106 18.5247C19.0605 18.7115 19.433 18.6638 19.433 18.9636C19.5545 18.9536 19.6281 18.8095 19.7544 18.886C19.8775 18.9597 19.8162 19.1675 19.9022 19.2617C19.9302 19.2917 20.1828 19.4457 20.1903 19.4479C20.329 19.4906 20.4848 19.3692 20.6643 19.4025C20.6918 19.4828 20.6939 19.5782 20.6831 19.6663C20.9847 19.5771 21.283 19.5898 21.5033 19.8325C21.8844 19.7843 22.0838 19.5826 22.4063 19.3637C22.5498 19.2662 22.704 19.1792 22.818 19.0428C22.9228 18.9182 23.0507 18.8195 23.1507 18.6937C23.2017 18.6294 23.2001 18.5125 23.2738 18.4471C23.356 18.3745 23.4323 18.4006 23.5054 18.3496C23.5785 18.2992 23.5758 18.2138 23.6624 18.1689C23.7484 18.1235 23.8596 18.1623 23.9445 18.1274C24.1052 18.0603 24.2047 17.9633 24.4003 17.9212C24.5013 17.9002 24.6819 17.8625 24.8018 17.8259C24.891 17.7999 24.9346 17.7594 25.0313 17.7112C25.0888 17.6829 25.106 17.6358 25.1737 17.6181C25.2221 17.6059 25.2624 17.6674 25.3151 17.6508C25.4892 17.5965 25.7074 17.5012 25.8741 17.3854C26.2008 17.4341 26.3083 17.049 26.6228 17.0518C26.6899 16.8207 26.7458 16.7675 26.9743 16.7431C27.0576 16.7348 27.1586 16.7542 27.2371 16.7198C27.3182 16.6843 27.3553 16.5658 27.4349 16.5275C27.6257 16.4355 27.7762 16.5968 27.9766 16.5563C28.125 16.5264 28.4528 16.3208 28.4765 16.6361C28.6141 16.6057 28.8135 16.573 28.9538 16.6295C29.0559 16.6705 29.1231 16.7946 29.2273 16.834C29.3816 16.8916 29.5068 16.8417 29.6498 16.9708C29.8024 17.1088 29.825 17.2091 30.0131 17.3056C30.2523 17.428 30.2507 17.4785 30.3679 17.7129C30.4823 17.9406 30.5237 17.8669 30.7188 17.95C30.9854 18.0631 30.9757 18.308 31.2665 18.3956C31.4584 18.4532 32.106 18.5175 32.1791 18.712C32.2759 18.7508 32.3861 18.8544 32.514 18.9015C32.6527 18.9525 32.822 19.0057 32.894 19.1648C33.4159 19.4008 33.9329 20.221 34.1404 20.7358C34.4279 21.449 34.4742 22.1955 34.5064 22.9558C34.5258 23.4157 34.5827 23.8784 34.6236 24.3317C34.6451 24.565 34.6607 24.7512 34.7483 24.969C34.9826 25.5503 35.4029 26.0679 35.8264 26.5124C36.1973 26.9008 35.9812 27.5913 36.0054 28.1189C36.0258 28.5733 36.0516 29.026 36.0839 29.4771C36.1059 29.7813 36.0807 30.013 36.2102 30.2862C36.2822 30.4402 36.5789 30.407 36.6364 30.5887C36.6961 30.7772 36.4671 31.2504 36.3462 31.4083C36.1441 31.671 36.0742 31.4898 36.0699 31.2343C36.064 30.9517 36.021 30.8542 35.8538 30.6414C35.5222 30.2208 35.72 29.5713 35.6045 29.0454C35.4561 28.3743 35.2981 27.7332 34.9595 27.1103C34.6413 26.5245 34.0667 25.9676 33.5363 25.5924C33.6728 26.1217 33.7539 26.7988 33.8781 27.368C33.9238 27.573 33.9813 27.6983 33.8851 27.8695C33.7636 28.084 33.6158 28.2225 33.5115 28.4652C33.2079 29.1707 32.7575 29.7376 32.3608 30.3837C32.2028 30.6414 31.9937 31.2471 31.7379 31.3635C31.5207 31.4621 30.8672 31.5303 30.6672 31.3995C30.2792 31.3945 30.9908 31.0033 31.0687 30.9811C31.2423 30.9307 31.6648 30.8414 31.6777 30.643C31.69 30.4546 31.8663 30.2751 31.9647 30.1183C32.1136 29.88 32.2415 29.6328 32.3673 29.3801C32.6435 28.826 32.7913 28.3134 32.7752 27.6861C32.7569 26.979 32.7005 26.1073 32.3769 25.4644C32.1232 24.9607 32.0233 24.5307 32.0222 23.9544C32.0217 23.4684 31.9851 22.9353 31.5385 22.6482C31.5804 22.8023 31.2461 23.1342 31.1284 23.2655C30.7823 23.6529 30.2937 23.9078 29.8492 24.1677C28.8764 24.7379 27.6015 24.7756 26.598 24.2996C26.3116 24.1633 25.8493 23.9915 25.5559 24.0092C25.5693 24.493 25.7934 25.3553 26.0197 25.8391C26.2202 26.2663 26.4943 26.6697 26.5448 27.1469C26.6072 27.7321 26.6819 28.3051 26.7657 28.898C26.8055 29.1795 26.8517 29.4466 26.9103 29.7237C26.9415 29.8711 27.0495 30.1255 27.0345 30.2657C27.0199 30.3931 26.8888 30.5106 26.8539 30.643C26.8066 30.8198 26.8985 30.9789 26.9006 31.1584C26.9033 31.4422 25.8488 31.3186 25.6403 31.1678Z" fill="black"/>
</g>
<defs>
<clipPath id="clip0_9298_97458">
<rect width="40" height="40" fill="white" transform="translate(4 4)"/>
</clipPath>
</defs>
</svg>
