<svg width="315" height="315" viewBox="0 0 315 315" fill="none" xmlns="http://www.w3.org/2000/svg">
<g clip-path="url(#clip0_7440_54955)">
<path d="M157.482 2.5C243.077 2.5 312.464 71.888 312.464 157.482C312.464 243.077 243.077 312.464 157.482 312.464C71.888 312.464 2.5 243.077 2.5 157.482C2.5 71.888 71.888 2.5 157.482 2.5Z" fill="black"/>
<path d="M157.482 2.5C243.077 2.5 312.464 71.888 312.464 157.482C312.464 243.077 243.077 312.464 157.482 312.464C71.888 312.464 2.5 243.077 2.5 157.482C2.5 71.888 71.888 2.5 157.482 2.5Z" stroke="#DAB16E" stroke-width="4"/>
<path d="M235.639 153.9C235.639 110.587 200.527 75.4746 157.214 75.4746C113.901 75.4746 78.7891 110.587 78.7891 153.9C78.7891 197.213 113.901 232.325 157.214 232.325C200.527 232.325 235.639 197.213 235.639 153.9Z" fill="#FFF7DE"/>
<path d="M145.603 185.654C149.795 185.654 153.966 185.981 158.097 186.693C165.234 187.92 172.255 190.293 179.095 194.127C207.331 209.931 231.268 233.402 257.21 252.932C261.624 256.17 259.063 254.345 264.946 258.331C236.706 287.661 197.71 303.451 157.215 303.964C103.312 303.951 51.6577 273.93 25.8438 226.409C41.0597 220.318 32.0168 223.955 52.9578 215.456C81.6858 203.824 114.318 185.654 145.603 185.654Z" fill="white"/>
<path d="M145.603 185.654C149.797 185.654 153.963 185.98 158.097 186.693C137.545 191.708 118.91 208.48 119.851 231.53C120.155 238.927 122.519 246.01 126.271 252.565C136.175 269.875 155.733 283.549 172.478 289.934C181.141 293.26 190.159 295.547 199.083 298.027C185.519 302.15 171.348 303.785 157.215 303.964C103.312 303.951 51.6577 273.93 25.8438 226.409C41.0597 220.318 32.0168 223.955 52.9578 215.456C81.6838 203.825 114.32 185.656 145.603 185.654Z" fill="#DAB16E"/>
<path d="M157.064 186.965C156.643 187.147 156.232 187.334 155.844 187.517C152.316 189.184 148.47 191.226 145.363 193.555C143.282 195.116 141.085 196.537 139.063 198.175C137.295 199.609 136.321 201.352 134.941 203.114C132.804 205.842 131.136 208.253 129.607 211.365C123.867 223.052 123.655 236.792 129.097 248.623C131.564 253.987 135.267 260.307 139.416 264.56C142.038 267.247 144.966 270.285 148.185 272.223C152.399 274.759 156.743 277.06 160.89 279.706C169.131 284.965 178.957 288.017 188.242 290.862C198.214 293.97 192.554 292.214 205.226 296.117L199.05 298.038C190.072 295.721 181.189 293.098 172.475 289.935C149.38 281.132 120.948 258.468 119.847 231.531C118.923 208.868 136.925 192.282 157.064 186.965Z" fill="black"/>
<path d="M153.912 193.106C154.049 192.506 154.869 192.663 155.192 192.264C155.632 191.721 155.331 190.472 155.212 189.855C155.029 188.909 154.805 187.851 154.293 187.026C153.839 186.295 153.814 185.644 153.558 184.864C153.277 184.013 152.671 183.284 152.293 182.479C152.065 181.992 151.464 181.159 151.478 180.65C151.608 180.607 151.417 180.697 151.385 180.805C151.307 181.06 151.1 181.293 150.992 181.54C150.804 181.97 150.67 182.42 150.497 182.856C150.234 183.516 149.953 184.163 149.609 184.785C149.325 185.3 149.152 185.722 149.032 186.295C148.943 186.723 148.685 186.965 148.484 187.354C147.826 188.625 147.562 190.112 147.098 191.445C146.956 191.851 146.81 192.015 146.532 192.354C146.267 192.678 146.438 193.117 146.229 193.391C145.963 193.74 145.073 193.534 144.695 193.534C144.476 193.534 144.253 193.61 144.03 193.501C143.835 193.405 143.909 193.186 143.626 193.173C144.023 192.527 145.048 192.569 145.402 191.733C145.794 190.809 146.28 189.924 146.625 188.917C146.829 188.322 147.176 187.659 147.179 187.023C147.182 186.465 147.168 186.097 147.4 185.542C147.65 184.944 147.988 184.468 148.16 183.825C148.416 182.864 148.729 181.938 148.986 180.971C149.201 180.161 149.423 179.645 148.837 179.04C148.372 178.558 147.749 177.878 147.849 177.154C145.175 177.898 142.756 177.003 140.594 175.445C139.792 174.868 138.984 174.227 138.16 173.703C137.6 173.346 137.331 172.972 136.898 172.45C136.328 171.763 135.648 171.111 135.547 170.222C135.063 170.19 134.417 169.361 133.735 169.293C133.189 169.237 132.64 169.097 132.32 168.548C132.731 167.811 132.803 167.077 133.847 167.044C134.283 167.03 134.631 166.892 135.048 166.882C135.631 166.868 135.913 167.033 136.511 166.821C137.407 166.505 138.369 166.551 139.098 167.259C139.258 166.949 139.729 166.479 139.913 166.858C140.122 167.284 139.513 167.868 139.658 168.226C139.731 168.407 139.889 168.375 140.026 168.479C140.275 168.668 140.34 168.86 140.499 169.098C140.621 169.281 140.796 169.418 140.95 169.586C141.144 169.798 141.211 170.075 141.391 170.291C141.67 170.628 142.363 170.542 142.363 171.083C142.589 171.065 142.726 170.805 142.961 170.943C143.19 171.076 143.076 171.451 143.236 171.621C143.288 171.675 143.758 171.953 143.772 171.957C144.03 172.034 144.32 171.815 144.654 171.875C144.705 172.02 144.709 172.192 144.689 172.351C145.25 172.19 145.805 172.213 146.215 172.651C146.924 172.564 147.295 172.2 147.895 171.805C148.162 171.629 148.449 171.472 148.661 171.226C148.856 171.001 149.094 170.823 149.28 170.596C149.375 170.48 149.372 170.269 149.509 170.151C149.662 170.02 149.804 170.067 149.94 169.975C150.076 169.884 150.071 169.73 150.232 169.649C150.392 169.567 150.599 169.637 150.757 169.574C151.056 169.453 151.241 169.278 151.605 169.202C151.793 169.164 152.129 169.096 152.352 169.03C152.518 168.983 152.599 168.91 152.779 168.823C152.886 168.772 152.918 168.687 153.044 168.655C153.134 168.633 153.209 168.744 153.307 168.714C153.631 168.616 154.037 168.444 154.347 168.235C154.955 168.323 155.155 167.628 155.74 167.633C155.865 167.216 155.969 167.12 156.394 167.076C156.549 167.061 156.737 167.096 156.883 167.034C157.034 166.97 157.103 166.756 157.251 166.687C157.606 166.521 157.886 166.812 158.259 166.739C158.535 166.685 159.145 166.314 159.189 166.883C159.445 166.828 159.816 166.769 160.077 166.871C160.267 166.945 160.392 167.169 160.586 167.24C160.873 167.344 161.106 167.254 161.372 167.487C161.656 167.736 161.698 167.917 162.048 168.091C162.493 168.312 162.49 168.403 162.708 168.826C162.921 169.237 162.998 169.104 163.361 169.254C163.857 169.458 163.839 169.9 164.38 170.058C164.737 170.162 165.942 170.278 166.078 170.629C166.258 170.699 166.463 170.886 166.701 170.971C166.959 171.063 167.274 171.159 167.408 171.446C168.379 171.872 169.341 173.352 169.727 174.281C170.262 175.568 170.348 176.915 170.408 178.287C170.444 179.117 170.55 179.952 170.626 180.77C170.666 181.191 170.695 181.527 170.858 181.92C171.294 182.969 172.076 183.903 172.864 184.705C173.554 185.406 173.152 186.652 173.197 187.604C173.235 188.424 173.283 189.241 173.343 190.055C173.384 190.604 173.337 191.022 173.578 191.515C173.712 191.793 174.264 191.733 174.371 192.061C174.482 192.401 174.056 193.255 173.831 193.54C173.455 194.014 173.325 193.687 173.317 193.226C173.306 192.716 173.226 192.54 172.915 192.156C172.298 191.397 172.666 190.225 172.451 189.276C172.175 188.065 171.881 186.908 171.251 185.784C170.659 184.727 169.59 183.722 168.603 183.045C168.857 184 169.008 185.222 169.239 186.249C169.324 186.619 169.431 186.845 169.252 187.154C169.026 187.541 168.751 187.791 168.557 188.229C167.992 189.502 167.154 190.525 166.416 191.691C166.122 192.156 165.733 193.249 165.257 193.459C164.853 193.637 163.637 193.76 163.265 193.524C162.543 193.515 163.867 192.809 164.012 192.769C164.335 192.678 165.121 192.517 165.145 192.159C165.168 191.819 165.496 191.495 165.679 191.212C165.956 190.782 166.194 190.336 166.428 189.88C166.942 188.88 167.217 187.955 167.187 186.823C167.153 185.547 167.048 183.974 166.446 182.814C165.974 181.905 165.788 181.129 165.786 180.089C165.785 179.212 165.717 178.25 164.886 177.732C164.964 178.01 164.342 178.609 164.123 178.846C163.479 179.545 162.57 180.005 161.743 180.474C159.933 181.503 157.561 181.571 155.694 180.712C155.161 180.466 154.301 180.156 153.755 180.188C153.78 181.061 154.197 182.617 154.618 183.49C154.991 184.261 155.501 184.989 155.595 185.85C155.711 186.906 155.85 187.94 156.006 189.01C156.08 189.518 156.166 190 156.275 190.5C156.333 190.766 156.534 191.225 156.506 191.478C156.479 191.708 156.235 191.92 156.17 192.159C156.082 192.478 156.253 192.765 156.257 193.089C156.262 193.601 154.3 193.378 153.912 193.106Z" fill="black"/>
</g>
<defs>
<clipPath id="clip0_7440_54955">
<rect width="315" height="315" fill="white"/>
</clipPath>
</defs>
</svg>
